<svg width="119" height="119" viewBox="0 0 119 119" fill="none" xmlns="http://www.w3.org/2000/svg">
<rect x="1" y="1" width="117" height="117" rx="28.8177" stroke="#3661FF" stroke-width="1.20619" stroke-dasharray="7.24 7.24"/>
<g filter="url(#filter0_d_2_132)">
<rect x="13.0618" y="13.0619" width="92.8763" height="92.8763" rx="19.299" fill="url(#paint0_linear_2_132)"/>
<rect x="13.6381" y="13.6382" width="91.7236" height="91.7236" rx="18.7226" stroke="#3661FF" stroke-width="1.15271"/>
</g>
<path opacity="0.35" d="M46.9967 38.4361C46.9967 38.5418 46.9439 38.6475 46.891 38.7532C46.0454 39.5988 44.9884 40.0216 43.7728 40.0216C42.61 40.0216 41.5002 39.5459 40.6545 38.7532C40.6017 38.6475 40.5488 38.5418 40.5488 38.4361C40.5488 38.3303 40.6017 38.2246 40.6545 38.1189C40.8131 37.9604 41.0773 37.9604 41.2888 38.1189C42.6629 39.4931 44.8827 39.4931 46.2568 38.1189C46.4154 37.9604 46.6796 37.9604 46.891 38.1189C46.9439 38.1718 46.9967 38.2775 46.9967 38.4361Z" fill="#2196F3"/>
<path opacity="0.35" d="M49.7981 41.184C49.7981 41.2897 49.7453 41.3954 49.6924 41.5011C46.4685 44.7251 41.1833 44.7251 37.9065 41.5011C37.8536 41.3954 37.8008 41.2897 37.8008 41.184C37.8008 41.0783 37.8536 40.9726 37.9065 40.8669C38.065 40.7083 38.3293 40.7083 38.4879 40.8669C39.9149 42.2939 41.7647 43.0338 43.773 43.0338C45.7814 43.0338 47.6312 42.241 49.0582 40.8669C49.1639 40.7612 49.2696 40.7612 49.3753 40.7612C49.481 40.7612 49.5867 40.814 49.6924 40.8669C49.7453 40.9726 49.7981 41.0783 49.7981 41.184Z" fill="#2196F3"/>
<path opacity="0.35" d="M52.5996 43.9857C52.5996 44.0914 52.5468 44.1971 52.4939 44.3028C47.6844 49.1123 39.9152 49.1123 35.1057 44.3028C35.0529 44.2499 35 44.1442 35 44.0385C35 43.9328 35.0529 43.8271 35.1057 43.7214C35.2643 43.5629 35.5285 43.5629 35.6871 43.7214C40.1266 48.161 47.3673 48.161 51.8069 43.7214C51.9654 43.5629 52.2297 43.5629 52.4411 43.7214C52.5468 43.7743 52.5996 43.88 52.5996 43.9857Z" fill="#2196F3"/>
<g clip-path="url(#clip0_2_132)">
<path d="M59.8001 29.0217H55.7014V32.3003H59.8001C68.842 32.3003 76.1947 39.653 76.1947 48.6949V73.2868H79.4733V48.6949C79.4733 37.8496 70.6448 29.0214 59.7998 29.0214L59.8001 29.0217ZM81.9328 81.4844H73.7355V76.5657H81.9328V81.4844ZM81.9328 96.2395H73.7355V84.763H81.9328V96.2395ZM52.4225 29.0217V32.3003C52.4225 34.1117 50.9554 35.5789 49.1439 35.5789H39.3073C37.4958 35.5789 36.0287 34.1117 36.0287 32.3003L36.0281 29.0217H52.4225Z" fill="#00386B"/>
</g>
<defs>
<filter id="filter0_d_2_132" x="6.72187" y="7.29834" width="110.167" height="110.167" filterUnits="userSpaceOnUse" color-interpolation-filters="sRGB">
<feFlood flood-opacity="0" result="BackgroundImageFix"/>
<feColorMatrix in="SourceAlpha" type="matrix" values="0 0 0 0 0 0 0 0 0 0 0 0 0 0 0 0 0 0 127 0" result="hardAlpha"/>
<feOffset dx="2.30542" dy="2.88177"/>
<feGaussianBlur stdDeviation="4.32266"/>
<feComposite in2="hardAlpha" operator="out"/>
<feColorMatrix type="matrix" values="0 0 0 0 0.808333 0 0 0 0 0.808333 0 0 0 0 0.808333 0 0 0 0.05 0"/>
<feBlend mode="normal" in2="BackgroundImageFix" result="effect1_dropShadow_2_132"/>
<feBlend mode="normal" in="SourceGraphic" in2="effect1_dropShadow_2_132" result="shape"/>
</filter>
<linearGradient id="paint0_linear_2_132" x1="59.4999" y1="13.0619" x2="59.4999" y2="105.938" gradientUnits="userSpaceOnUse">
<stop stop-color="white"/>
<stop offset="0.9999" stop-color="#F3FDFF"/>
</linearGradient>
<clipPath id="clip0_2_132">
<rect width="46" height="67.2983" fill="white" transform="matrix(-1 0 0 1 82 29)"/>
</clipPath>
</defs>
</svg>
