<svg width="49" height="41" viewBox="0 0 49 41" fill="none" xmlns="http://www.w3.org/2000/svg">
<g clip-path="url(#clip0_2_251)">
<path d="M25.031 39.4265C28.971 39.4265 32.165 36.3287 32.165 32.5074C32.165 28.6861 28.971 25.5884 25.031 25.5884C21.091 25.5884 17.897 28.6861 17.897 32.5074C17.897 36.3287 21.091 39.4265 25.031 39.4265Z" fill="url(#paint0_linear_2_251)"/>
<path fill-rule="evenodd" clip-rule="evenodd" d="M9.9871 22.1905L13.8175 26.5906C13.9591 26.7521 14.1615 26.8518 14.3794 26.8674C14.5974 26.883 14.8127 26.8133 14.9772 26.6738C21.1802 21.2795 28.8614 21.2795 35.0807 26.6738C35.2452 26.8133 35.4605 26.883 35.6785 26.8674C35.8964 26.8518 36.0988 26.7521 36.2404 26.5906L40.0749 22.1905C40.3643 21.8575 40.3224 21.3604 39.9809 21.0775C30.9767 13.4377 19.0812 13.4377 10.081 21.0775C9.73959 21.3604 9.69764 21.8575 9.9871 22.1905Z" fill="#2684FF"/>
<path fill-rule="evenodd" clip-rule="evenodd" d="M0.641344 10.8049L6.7435 17.302C6.96905 17.5404 7.29149 17.6876 7.63871 17.7107C7.98593 17.7338 8.32895 17.6308 8.59106 17.4248C18.4729 9.45991 30.7097 9.45991 40.6176 17.4248C40.8797 17.6308 41.2228 17.7338 41.57 17.7107C41.9172 17.6876 42.2396 17.5404 42.4652 17.302L48.5738 10.8049C49.035 10.3133 48.9681 9.57931 48.4242 9.16166C34.0796 -2.11899 15.1291 -2.11899 0.790971 9.16166C0.247049 9.57931 0.180213 10.3133 0.641344 10.8049Z" fill="#2684FF"/>
</g>
<defs>
<linearGradient id="paint0_linear_2_251" x1="25.031" y1="37.0462" x2="25.031" y2="24.7884" gradientUnits="userSpaceOnUse">
<stop stop-color="#2684FF"/>
<stop offset="0.82" stop-color="#0052CC"/>
</linearGradient>
<clipPath id="clip0_2_251">
<rect width="48.9736" height="40.2672" fill="white" transform="translate(0 -0.00390625)"/>
</clipPath>
</defs>
</svg>
