<svg width="45" height="38" viewBox="0 0 45 38" fill="none" xmlns="http://www.w3.org/2000/svg">
<path d="M23 36.7311C26.6203 36.7311 29.5551 33.8847 29.5551 30.3735C29.5551 26.8623 26.6203 24.0159 23 24.0159C19.3797 24.0159 16.4448 26.8623 16.4448 30.3735C16.4448 33.8847 19.3797 36.7311 23 36.7311Z" fill="url(#paint0_linear_2_29)"/>
<path fill-rule="evenodd" clip-rule="evenodd" d="M9.17675 20.8938L12.6964 24.9369C12.8264 25.0853 13.0124 25.1769 13.2127 25.1913C13.413 25.2056 13.6108 25.1415 13.762 25.0133C19.4616 20.0568 26.5196 20.0568 32.2343 25.0133C32.3854 25.1415 32.5833 25.2056 32.7836 25.1913C32.9838 25.1769 33.1698 25.0853 33.2999 24.9369L36.8232 20.8938C37.0892 20.5879 37.0507 20.1311 36.7369 19.8712C28.4633 12.8512 17.533 12.8512 9.26305 19.8712C8.94933 20.1311 8.91078 20.5879 9.17675 20.8938Z" fill="#2684FF"/>
<path fill-rule="evenodd" clip-rule="evenodd" d="M0.589319 10.4319L6.19636 16.4018C6.40361 16.6209 6.69989 16.7561 7.01893 16.7773C7.33798 16.7986 7.65317 16.7039 7.89401 16.5146C16.9741 9.19602 28.218 9.19602 37.322 16.5146C37.5628 16.7039 37.878 16.7986 38.1971 16.7773C38.5161 16.7561 38.8124 16.6209 39.0196 16.4018L44.6327 10.4319C45.0564 9.9802 44.995 9.30573 44.4952 8.92197C31.3145 -1.44339 13.9015 -1.44339 0.726805 8.92197C0.227017 9.30573 0.165603 9.9802 0.589319 10.4319Z" fill="#2684FF"/>
<defs>
<linearGradient id="paint0_linear_2_29" x1="23" y1="34.544" x2="23" y2="23.2808" gradientUnits="userSpaceOnUse">
<stop stop-color="#2684FF"/>
<stop offset="0.82" stop-color="#0052CC"/>
</linearGradient>
</defs>
</svg>
